<?xml version="1.0" encoding="utf-8"?>
<!-- Generator: Adobe Illustrator 19.2.1, SVG Export Plug-In . SVG Version: 6.00 Build 0)  -->
<svg version="1.1" id="Layer_1" xmlns="http://www.w3.org/2000/svg" xmlns:xlink="http://www.w3.org/1999/xlink" x="0px" y="0px"
	 viewBox="0 0 496.2 496.2" style="enable-background:new 0 0 496.2 496.2;" xml:space="preserve">
<style type="text/css">
	.st0{fill:#FFFFFF;}
</style>
<path class="st0" d="M496.2,248.1C496.2,111.1,385.1,0,248.1,0C111.1,0,0,111.1,0,248.1c0,137,111.1,248.1,248.1,248.1
	C385.1,496.2,496.2,385.1,496.2,248.1z"/>
<path d="M370.8,235.2L195.9,127.8c-4.8-2.9-11.1-3.1-16-0.3c-5,2.8-8.1,8.1-8.1,13.8v214c0,5.7,3.1,11,8,13.8c2.4,1.3,5,2,7.7,2
	c2.9,0,5.7-0.8,8.2-2.3l174.9-106.6c4.7-2.8,7.6-8,7.6-13.4C378.3,243.3,375.5,238.1,370.8,235.2z"/>
</svg>
